<?xml version="1.0" encoding="utf-8"?>
<!-- Generator: Adobe Illustrator 27.6.1, SVG Export Plug-In . SVG Version: 6.00 Build 0)  -->
<svg version="1.1" id="Layer_1" xmlns="http://www.w3.org/2000/svg" xmlns:xlink="http://www.w3.org/1999/xlink" x="0px" y="0px"
	 viewBox="0 0 180 252" style="enable-background:new 0 0 180 252;" xml:space="preserve">
<style type="text/css">
	.st0{fill:none;stroke:#FFFFFF;stroke-width:2.25;stroke-linecap:round;stroke-linejoin:round;stroke-miterlimit:10;}
	.st1{stroke:#FFFFFF;stroke-width:2.25;stroke-linecap:round;stroke-linejoin:round;stroke-miterlimit:10;}
	.st2{fill:#FFFFFF;}
	.st3{fill:#F7941D;}
	.st4{fill-rule:evenodd;clip-rule:evenodd;fill:none;stroke:#FFFFFF;stroke-width:2.25;stroke-miterlimit:10;}
	.st5{fill:none;}
	.st6{font-family:'Arvo';}
	.st7{font-size:24px;}
	.st8{letter-spacing:2.1;}
	.st9{fill:none;stroke:#FFFFFF;stroke-width:1.125;stroke-linecap:round;stroke-linejoin:round;stroke-miterlimit:10;}
	.st10{stroke:#FFFFFF;stroke-width:1.125;stroke-linecap:round;stroke-linejoin:round;stroke-miterlimit:10;}
</style>
<g id="cardback">
	<rect id="bg" x="0" width="180" height="252"/>
	<g id="text">
		<rect x="0" y="207" class="st5" width="180" height="27"/>
		<text transform="matrix(0.95 0 0 1 17.3864 225.2341)" class="st2 st6 st7 st8">ELEMENTS</text>
	</g>
	<g id="logo">
		<ellipse id="ellipse_3" class="st0" cx="90" cy="108" rx="27" ry="81"/>
		
			<ellipse id="ellipse_2" transform="matrix(0.866 -0.5 0.5 0.866 -41.9422 59.4694)" class="st0" cx="90" cy="108" rx="81" ry="27"/>
		
			<ellipse id="ellipse_1" transform="matrix(0.5 -0.866 0.866 0.5 -48.5306 131.9425)" class="st0" cx="90" cy="108" rx="27" ry="81"/>
		<circle id="circle_inside" cx="90" cy="108" r="36"/>
		<circle id="dot3" class="st1" cx="43.2" cy="62.1" r="4.5"/>
		<circle id="dot2" class="st1" cx="153.5" cy="90.3" r="4.5"/>
		<circle id="dot1" class="st1" cx="74" cy="171.5" r="4.5"/>
		<path id="flame" class="st2" d="M86.8,76.3c2.1,0.4,11.8,6.4,13.6,26.5c1.5-0.4,3.7-4.9,1.6-11.4c2.7,2.8,11.8,13.6,3.6,23.5
			c0.2,0.7,2.4,1.7,3.7-0.8c-1.1,32.6-51.2,20.6-37.2-9.6C78,93.4,89.4,100.5,86.8,76.3z"/>
	</g>
	<rect id="border" x="9" y="9" class="st4" width="162" height="234"/>
</g>
</svg>
