<?xml version="1.0" encoding="utf-8"?>
<!-- Generator: Adobe Illustrator 27.6.1, SVG Export Plug-In . SVG Version: 6.00 Build 0)  -->
<svg version="1.1" id="Layer_1" xmlns="http://www.w3.org/2000/svg" xmlns:xlink="http://www.w3.org/1999/xlink" x="0px" y="0px"
	 viewBox="0 0 180 252" style="enable-background:new 0 0 180 252;" xml:space="preserve">
<style type="text/css">
	.st0{fill:none;stroke:#FFFFFF;stroke-width:1.125;stroke-miterlimit:10;}
	.st1{opacity:0.5;}
	.st2{fill:#231F20;}
	.st3{fill:none;}
	.st4{fill:#FFFFFF;}
	.st5{font-family:'Arvo';}
	.st6{font-size:24px;}
	.st7{letter-spacing:2.1;}
	.st8{fill-rule:evenodd;clip-rule:evenodd;fill:none;stroke:#FFFFFF;stroke-width:2.25;stroke-miterlimit:10;}
	.st9{fill:none;stroke:#FFFFFF;stroke-width:2.25;stroke-linecap:round;stroke-linejoin:round;stroke-miterlimit:10;}
	.st10{fill:#231F20;stroke:#FFFFFF;stroke-width:2.25;stroke-linecap:round;stroke-linejoin:round;stroke-miterlimit:10;}
	.st11{opacity:0.75;fill:#231F20;}
</style>
<g id="grid">
	<g>
		<line class="st0" x1="0" y1="135" x2="180" y2="135"/>
		<line class="st0" x1="0" y1="126" x2="180" y2="126"/>
		<line class="st0" x1="0" y1="117" x2="180" y2="117"/>
		<line class="st0" x1="0" y1="108" x2="180" y2="108"/>
		<line class="st0" x1="0" y1="99" x2="180" y2="99"/>
		<line class="st0" x1="0" y1="90" x2="180" y2="90"/>
		<line class="st0" x1="0" y1="81" x2="180" y2="81"/>
		<line class="st0" x1="0" y1="72" x2="180" y2="72"/>
		<line class="st0" x1="0" y1="63" x2="180" y2="63"/>
		<line class="st0" x1="0" y1="54" x2="180" y2="54"/>
		<line class="st0" x1="0" y1="45" x2="180" y2="45"/>
		<line class="st0" x1="0" y1="36" x2="180" y2="36"/>
		<line class="st0" x1="0" y1="27" x2="180" y2="27"/>
		<line class="st0" x1="0" y1="18" x2="180" y2="18"/>
		<line class="st0" x1="0" y1="9" x2="180" y2="9"/>
		<line class="st0" x1="0" y1="0" x2="180" y2="0"/>
		<line class="st0" x1="0" y1="252" x2="180" y2="252"/>
		<line class="st0" x1="0" y1="243" x2="180" y2="243"/>
		<line class="st0" x1="0" y1="234" x2="180" y2="234"/>
		<line class="st0" x1="0" y1="225" x2="180" y2="225"/>
		<line class="st0" x1="0" y1="216" x2="180" y2="216"/>
		<line class="st0" x1="0" y1="207" x2="180" y2="207"/>
		<line class="st0" x1="0" y1="198" x2="180" y2="198"/>
		<line class="st0" x1="0" y1="189" x2="180" y2="189"/>
		<line class="st0" x1="0" y1="180" x2="180" y2="180"/>
		<line class="st0" x1="0" y1="171" x2="180" y2="171"/>
		<line class="st0" x1="0" y1="162" x2="180" y2="162"/>
		<line class="st0" x1="0" y1="153" x2="180" y2="153"/>
		<line class="st0" x1="0" y1="144" x2="180" y2="144"/>
	</g>
	<g>
		<line class="st0" x1="180" y1="0" x2="180" y2="252"/>
		<line class="st0" x1="171" y1="0" x2="171" y2="252"/>
		<line class="st0" x1="162" y1="0" x2="162" y2="252"/>
		<line class="st0" x1="153" y1="0" x2="153" y2="252"/>
		<line class="st0" x1="144" y1="0" x2="144" y2="252"/>
		<line class="st0" x1="135" y1="0" x2="135" y2="252"/>
		<line class="st0" x1="126" y1="0" x2="126" y2="252"/>
		<line class="st0" x1="117" y1="0" x2="117" y2="252"/>
		<line class="st0" x1="108" y1="0" x2="108" y2="252"/>
		<line class="st0" x1="99" y1="0" x2="99" y2="252"/>
		<line class="st0" x1="90" y1="0" x2="90" y2="252"/>
		<line class="st0" x1="81" y1="0" x2="81" y2="252"/>
		<line class="st0" x1="72" y1="0" x2="72" y2="252"/>
		<line class="st0" x1="63" y1="0" x2="63" y2="252"/>
		<line class="st0" x1="54" y1="0" x2="54" y2="252"/>
		<line class="st0" x1="45" y1="0" x2="45" y2="252"/>
		<line class="st0" x1="36" y1="0" x2="36" y2="252"/>
		<line class="st0" x1="27" y1="0" x2="27" y2="252"/>
		<line class="st0" x1="18" y1="0" x2="18" y2="252"/>
		<line class="st0" x1="9" y1="0" x2="9" y2="252"/>
		<line class="st0" x1="0" y1="0" x2="0" y2="252"/>
	</g>
</g>
<g id="cardback" class="st1">
	<rect id="bg" x="0" y="0" class="st2" width="180" height="252"/>
	<g id="text">
		<rect x="0" y="207" class="st3" width="180" height="27"/>
		<text transform="matrix(0.95 0 0 1 17.3863 225.2341)" class="st4 st5 st6 st7">ELEMENTS</text>
	</g>
	<rect id="border" x="9" y="9" class="st8" width="162" height="234"/>
	<g id="lines">
		<line class="st0" x1="106.1" y1="171.3" x2="26.5" y2="125.4"/>
		<line class="st0" x1="153.3" y1="90.2" x2="73.8" y2="44.3"/>
		<line class="st0" x1="153.3" y1="125.8" x2="73.8" y2="171.7"/>
		<line class="st0" x1="106.4" y1="44.3" x2="26.8" y2="90.2"/>
		<line class="st0" x1="136.6" y1="153.9" x2="136.6" y2="62.1"/>
		<line class="st0" x1="43.2" y1="153.9" x2="43.2" y2="62.1"/>
	</g>
	<g id="logo">
		<ellipse id="ellipse_3" class="st9" cx="90" cy="108" rx="27" ry="81"/>
		
			<ellipse id="ellipse_2" transform="matrix(0.866 -0.5 0.5 0.866 -41.9423 59.4693)" class="st9" cx="90" cy="108" rx="81" ry="27"/>
		
			<ellipse id="ellipse_1" transform="matrix(0.5 -0.866 0.866 0.5 -48.5307 131.9424)" class="st9" cx="90" cy="108" rx="27" ry="81"/>
		<circle id="dot3" class="st10" cx="43.2" cy="62.1" r="4.5"/>
		<circle id="dot2" class="st10" cx="153.5" cy="90.3" r="4.5"/>
		<circle id="dot1" class="st10" cx="74" cy="171.5" r="4.5"/>
		<circle id="circle_inside" class="st11" cx="90" cy="108" r="36"/>
		<path id="flame" class="st4" d="M86.8,76.3c2.1,0.4,11.8,6.4,13.6,26.5c1.5-0.4,3.7-4.9,1.6-11.4c2.7,2.8,11.8,13.6,3.6,23.5
			c0.2,0.7,2.4,1.7,3.7-0.8c-1.1,32.6-51.2,20.6-37.2-9.6C78,93.4,89.4,100.5,86.8,76.3z"/>
	</g>
</g>
</svg>
