<svg xmlns="http://www.w3.org/2000/svg" viewBox="0 0 180 252" >
<rect x="0" width="180" height="252"/>
<text transform="matrix(0.95 0 0 1 17.3864 225.2341)" style="fill:#F7941D;font-family:'Arvo';font-size:24px;letter-spacing:2.1;">ELEMENTS</text>
<g style="fill:none;stroke:#fff;stroke-width:2.25;">
<ellipse cx="90" cy="108" rx="27" ry="81"/>
<ellipse transform="matrix(0.866 -0.5 0.5 0.866 -41.9422 59.4694)" cx="90" cy="108" rx="81" ry="27"/>
<ellipse transform="matrix(0.5 -0.866 0.866 0.5 -48.5306 131.9425)" cx="90" cy="108" rx="27" ry="81"/>
</g>
<circle cx="90" cy="108" r="36"/>
<g style="stroke:#fff;stroke-width:2.25;">
<circle cx="43.2" cy="62.1" r="4.5"/>
<circle cx="153.5" cy="90.3" r="4.5"/>
<circle cx="74" cy="171.5" r="4.5"/>
</g>
<path fill="#F7941D" d="M86.8,76.3c2.1,0.4,11.8,6.4,13.6,26.5c1.5-0.4,3.7-4.9,1.6-11.4c2.7,2.8,11.8,13.6,3.6,23.5c0.2,0.7,2.4,1.7,3.7-0.8c-1.1,32.6-51.2,20.6-37.2-9.6C78,93.4,89.4,100.5,86.8,76.3z"/>
<rect x="9" y="9" style="fill-rule:evenodd;clip-rule:evenodd;fill:none;stroke:#fff;stroke-width:2.25;" width="162" height="234"/>
</svg>