<svg xmlns="http://www.w3.org/2000/svg" viewBox="0 0 252 108"><rect width="252" height="108" x="0"/><text transform="matrix(0.95 0 0 1 90.0002 63.2341)" style="fill:#fff;font-family:'Arvo';font-size:24px;letter-spacing:2.1">ELEMENTS</text><g style="fill:none;stroke:#fff;stroke-width:1.125"><ellipse cx="44.7" cy="54" rx="13.5" ry="40.5"/><ellipse cx="44.7" cy="54" rx="40.5" ry="13.5" transform="matrix(0.866 -0.5 0.5 0.866 -21.0081 29.5968)"/><ellipse cx="44.7" cy="54" rx="13.5" ry="40.5" transform="matrix(0.5 -0.866 0.866 0.5 -24.4032 65.7323)"/></g><circle cx="44.7" cy="54" r="18"/><g style="stroke:#fff;stroke-width:1.125"><circle cx="21.3" cy="31" r="2.2"/><circle cx="76.5" cy="45.2" r="2.2"/><circle cx="36.7" cy="85.8" r="2.2"/></g><path fill="#fff" d="M43.1,38.2c1,0.2,5.9,3.2,6.8,13.2c0.8-0.2,1.8-2.5,0.8-5.7c1.3,1.4,5.9,6.8,1.8,11.8c0.1,0.4,1.2,0.9,1.8-0.4c-0.5,16.3-25.6,10.3-18.6-4.8C38.7,46.7,44.4,50.3,43.1,38.2z"/></svg>