<?xml version="1.0" encoding="utf-8"?>
<!-- Generator: Adobe Illustrator 27.6.1, SVG Export Plug-In . SVG Version: 6.00 Build 0)  -->
<svg version="1.1" id="Layer_1" xmlns="http://www.w3.org/2000/svg" xmlns:xlink="http://www.w3.org/1999/xlink" x="0px" y="0px"
	 viewBox="0 0 252 108" style="enable-background:new 0 0 252 108;" xml:space="preserve">
<style type="text/css">
	.st0{fill:none;stroke:#FFFFFF;stroke-width:2.25;stroke-linecap:round;stroke-linejoin:round;stroke-miterlimit:10;}
	.st1{stroke:#FFFFFF;stroke-width:2.25;stroke-linecap:round;stroke-linejoin:round;stroke-miterlimit:10;}
	.st2{fill:#FFFFFF;}
	.st3{fill:#F7941D;}
	.st4{fill-rule:evenodd;clip-rule:evenodd;fill:none;stroke:#FFFFFF;stroke-width:2.25;stroke-miterlimit:10;}
	.st5{fill:none;}
	.st6{font-family:'Arvo';}
	.st7{font-size:24px;}
	.st8{letter-spacing:2.1;}
	.st9{fill:none;stroke:#FFFFFF;stroke-width:1.125;stroke-linecap:round;stroke-linejoin:round;stroke-miterlimit:10;}
	.st10{stroke:#FFFFFF;stroke-width:1.125;stroke-linecap:round;stroke-linejoin:round;stroke-miterlimit:10;}
</style>
<g id="logo_horizontal">
	<rect id="bg_00000015341706437231397600000014209212772219771543_" width="252" height="108"/>
	<g id="text_00000077285274813732120490000004349506157702469524_">
		<rect x="90" y="45" class="st5" width="153" height="27"/>
		<text transform="matrix(0.95 0 0 1 90.0002 63.2341)" class="st2 st6 st7 st8">ELEMENTS</text>
	</g>
	<g id="logo_00000034086660136187391580000014107188604866318505_">
		<rect id="bg_00000072239044327929215110000012182057264378089111_" x="4.5" y="9" width="81" height="90"/>
		<g id="logo_00000169521015934845304500000010587497762655396287_">
			
				<ellipse id="ellipse_3_00000021108801076039564970000002019332699167360944_" class="st9" cx="44.7" cy="54" rx="13.5" ry="40.5"/>
			
				<ellipse id="ellipse_2_00000161598717420668690400000002189911976091480732_" transform="matrix(0.866 -0.5 0.5 0.866 -21.0081 29.5968)" class="st9" cx="44.7" cy="54" rx="40.5" ry="13.5"/>
			
				<ellipse id="ellipse_1_00000042739000375681491140000001825383355564732082_" transform="matrix(0.5 -0.866 0.866 0.5 -24.4032 65.7323)" class="st9" cx="44.7" cy="54" rx="13.5" ry="40.5"/>
			<circle id="circle_inside_00000129923863826087519900000003967815808879454099_" cx="44.7" cy="54" r="18"/>
			<circle id="dot3_00000047051072007296450590000001539084142900912296_" class="st10" cx="21.3" cy="31" r="2.2"/>
			<circle id="dot2_00000007399465176478051940000008027488049443822013_" class="st10" cx="76.5" cy="45.2" r="2.2"/>
			<circle id="dot1_00000101067946265851953970000000002218187139997605_" class="st10" cx="36.7" cy="85.8" r="2.2"/>
			<path id="flame_00000004504695085470182540000000195509456254020228_" class="st2" d="M43.1,38.2c1,0.2,5.9,3.2,6.8,13.2
				c0.8-0.2,1.8-2.5,0.8-5.7c1.3,1.4,5.9,6.8,1.8,11.8c0.1,0.4,1.2,0.9,1.8-0.4c-0.5,16.3-25.6,10.3-18.6-4.8
				C38.7,46.7,44.4,50.3,43.1,38.2z"/>
		</g>
	</g>
</g>
</svg>
