<svg xmlns="http://www.w3.org/2000/svg" xmlns:xlink="http://www.w3.org/1999/xlink" viewBox="0 0 162 180"><style type="text/css">.st0{fill:none;stroke:#fff;stroke-width:2.25;stroke-linecap:round;stroke-linejoin:round;stroke-miterlimit:10}.st1{opacity:0;fill:none}.st1,.st2{stroke:#fff;stroke-width:2.25;stroke-linecap:round;stroke-linejoin:round;stroke-miterlimit:10}.st5{fill:#fff}</style><rect width="162" height="180"/><ellipse cx="81" cy="90" class="st0" rx="27" ry="81"/><ellipse cx="81" cy="90" class="st0" rx="81" ry="27" transform="matrix(0.866 -0.5 0.5 0.866 -34.148 52.558)"/><ellipse cx="81" cy="90" class="st0" rx="27" ry="81" transform="matrix(0.5 -0.866 0.866 0.5 -37.442 115.1486)"/><circle cx="81" cy="90" r="36"/><path d="M99,98.5c-0.3,1-1.2,1.7-2.2,1.7c-0.9,0-1.7-0.5-2.1-1.3C95.6,96,96,93.1,96,90c0-11.8-6.9-22.1-16.8-27	c0.2,1.2,0.3,2.5,0.3,3.8c0,6.9-3.2,13.1-8.2,17.1c-5,3.2-8.3,8.8-8.3,15.2c0,5.7,2.6,10.7,6.7,14c-0.4-1.4-0.7-2.9-0.7-4.4	c0-5.5,3.1-10.3,7.6-12.8c-0.4,1.3-0.6,2.6-0.6,4c0,2.3,0.5,4.4,1.5,6.3c3-2.7,5-6.6,5-10.9c0-1.4-0.2-2.7-0.6-4	c4.5,2.5,7.6,7.3,7.6,12.8c0,5.7-3.2,10.5-8,12.9c9.7-0.3,17.4-8.2,17.4-18C99,98.8,99,98.6,99,98.5" class="st1"/><circle cx="34.2" cy="44.1" r="4.5" class="st2"/><circle cx="144.5" cy="72.3" r="4.5" class="st2"/><circle cx="65.1" cy="153.5" r="4.5" class="st2"/><path d="M77.7,58.3c2.1,0.4,11.8,6.4,13.6,26.5c0,0,0,0,0,0c1.5-0.4,3.7-4.9,1.6-11.4c0,0,0-0.1,0,0	c2.7,2.8,11.8,13.6,3.6,23.5v0c0.2,0.7,2.4,1.7,3.7-0.8c0,0,0.1,0,0.1,0c-1.2,32.6-51.3,20.6-37.3-9.6	C68.9,75.4,80.3,82.5,77.7,58.3C77.6,58.3,77.7,58.3,77.7,58.3z" class="st5"/></svg>