<svg xmlns="http://www.w3.org/2000/svg" viewBox="0 0 162 216"><rect width="162" height="216" x="0"/><text transform="matrix(0.95 0 0 1 8.3878 207.2341)" style="fill:#fff;font-family:'Arvo';font-size:24px;letter-spacing:2.1">ELEMENTS</text><g style="fill:none;stroke:#fff;stroke-width:2.25"><ellipse cx="81" cy="90" rx="27" ry="81"/><ellipse cx="81" cy="90" rx="81" ry="27" transform="matrix(0.866 -0.5 0.5 0.866 -34.1476 52.5593)"/><ellipse cx="81" cy="90" rx="27" ry="81" transform="matrix(0.5 -0.866 0.866 0.5 -37.4407 115.1508)"/></g><circle cx="81" cy="90" r="36"/><g style="stroke:#fff;stroke-width:2.25"><circle cx="34.2" cy="44.1" r="4.5"/><circle cx="144.5" cy="72.3" r="4.5"/><circle cx="65.1" cy="153.5" r="4.5"/></g><path fill="#fff" d="M80.4,62.7c3.1,2.9,7.6,9.2,8.8,22.4c0.1,0.7,0.4,1.3,1,1.6c0.4,0.3,0.8,0.4,1.3,0.4c0.2,0,0.4,0,0.6-0.1c1.1-0.3,2.1-1.2,2.8-2.5c0.5-1,0.9-2,1.1-3.2c2.1,4.1,3.1,9.3-1,14.3c-0.5,0.6-0.6,1.3-0.4,2.1c0.4,1.3,1.7,2.2,3.2,2.4c-1.8,9.8-9.2,13.4-16.1,13.4c-6.7,0-13.1-3.3-16.3-8.4c-3.1-4.8-3.1-10.9-0.1-17.4c1.8-3.3,4.1-4.7,6.6-6.2C77,78.1,80.9,74.8,80.4,62.7 M77.8,58.3c2.6,24.2-8.8,17.1-14.7,28.2c-8.2,17.6,5.5,29,18.5,29c9.3,0,18.3-5.8,18.7-19.4c-0.6,1.2-1.5,1.6-2.2,1.6c-0.8,0-1.4-0.4-1.5-0.8c8.2-9.9-0.9-20.7-3.6-23.5c2.1,6.5-0.1,11-1.6,11.4C89.6,64.7,79.9,58.7,77.8,58.3L77.8,58.3z M100.3,96.1L100.3,96.1L100.3,96.1z"/></svg>