<?xml version="1.0" encoding="utf-8"?>
<!-- Generator: Adobe Illustrator 27.6.1, SVG Export Plug-In . SVG Version: 6.00 Build 0)  -->
<svg version="1.1" id="Layer_1" xmlns="http://www.w3.org/2000/svg" xmlns:xlink="http://www.w3.org/1999/xlink" x="0px" y="0px"
	 viewBox="0 0 162 180" style="enable-background:new 0 0 162 180;" xml:space="preserve">
<style type="text/css">
	.st0{fill:none;stroke:#FFFFFF;stroke-width:2.25;stroke-linecap:round;stroke-linejoin:round;stroke-miterlimit:10;}
	.st1{stroke:#FFFFFF;stroke-width:2.25;stroke-linecap:round;stroke-linejoin:round;stroke-miterlimit:10;}
	.st2{fill:#FFFFFF;}
	.st3{fill:#F7941D;}
	.st4{fill-rule:evenodd;clip-rule:evenodd;fill:none;stroke:#FFFFFF;stroke-width:2.25;stroke-miterlimit:10;}
	.st5{fill:none;stroke:#FFFFFF;stroke-width:1.125;stroke-linecap:round;stroke-linejoin:round;stroke-miterlimit:10;}
	.st6{stroke:#FFFFFF;stroke-width:1.125;stroke-linecap:round;stroke-linejoin:round;stroke-miterlimit:10;}
</style>
<g id="logo_00000046307333583067626920000006305780657536830394_">
	<rect id="bg_00000080895111082697458110000008275975343988117378_" width="162" height="180"/>
	<g id="logo_00000139278287185594635270000003820971832188157103_">
		<ellipse id="ellipse_3_00000137121171651733579140000017019473628534188191_" class="st0" cx="80.4" cy="90" rx="27" ry="81"/>
		
			<ellipse id="ellipse_2_00000177454179015089704930000002618237506733248422_" transform="matrix(0.866 -0.5 0.5 0.866 -34.2219 52.282)" class="st0" cx="80.4" cy="90" rx="81" ry="27"/>
		
			<ellipse id="ellipse_1_00000005970308789025058660000005308588005022482329_" transform="matrix(0.5 -0.866 0.866 0.5 -37.718 114.6704)" class="st0" cx="80.4" cy="90" rx="27" ry="81"/>
		<circle id="circle_inside_00000102507055746359950520000015096210390563902860_" cx="80.4" cy="90" r="36"/>
		<circle id="dot3_00000112606439356604176510000008977974919565436861_" class="st1" cx="33.7" cy="44.1" r="4.5"/>
		<circle id="dot2_00000074405674043612984020000005535736812720989365_" class="st1" cx="143.9" cy="72.3" r="4.5"/>
		<circle id="dot1_00000036933485890008954020000002434275466928305337_" class="st1" cx="64.5" cy="153.5" r="4.5"/>
		<path id="flame_00000181782310018998506600000011459497585531875481_" class="st2" d="M77.2,58.3c2.1,0.4,11.8,6.4,13.6,26.5
			c1.5-0.4,3.7-4.9,1.6-11.4c2.7,2.8,11.8,13.6,3.6,23.5c0.2,0.7,2.4,1.7,3.7-0.8c-1.1,32.6-51.2,20.6-37.2-9.6
			C68.4,75.4,79.8,82.5,77.2,58.3z"/>
	</g>
</g>
</svg>
