<?xml version="1.0" encoding="utf-8"?>
<!-- Generator: Adobe Illustrator 27.6.1, SVG Export Plug-In . SVG Version: 6.00 Build 0)  -->
<svg version="1.1" id="Layer_1" xmlns="http://www.w3.org/2000/svg" xmlns:xlink="http://www.w3.org/1999/xlink" x="0px" y="0px"
	 viewBox="0 0 162 216" style="enable-background:new 0 0 162 216;" xml:space="preserve">
<style type="text/css">
	.st0{fill:none;}
	.st1{fill:#FFFFFF;}
	.st2{font-family:'Arvo';}
	.st3{font-size:24px;}
	.st4{letter-spacing:2.1;}
	.st5{fill:none;stroke:#FFFFFF;stroke-width:2.25;stroke-linecap:round;stroke-linejoin:round;stroke-miterlimit:10;}
	.st6{stroke:#FFFFFF;stroke-width:2.25;stroke-linecap:round;stroke-linejoin:round;stroke-miterlimit:10;}
	.st7{fill:#F7941D;}
	.st8{fill-rule:evenodd;clip-rule:evenodd;fill:none;stroke:#FFFFFF;stroke-width:2.25;stroke-miterlimit:10;}
	.st9{fill:none;stroke:#FFFFFF;stroke-width:1.125;stroke-linecap:round;stroke-linejoin:round;stroke-miterlimit:10;}
	.st10{stroke:#FFFFFF;stroke-width:1.125;stroke-linecap:round;stroke-linejoin:round;stroke-miterlimit:10;}
</style>
<g id="logo_text_vertical">
	<rect id="bg_00000115502082657834012040000015848153876228891306_" x="0" width="162" height="216"/>
	<g id="text_00000004513681113864586800000003224204028097873834_">
		<rect x="0" y="189" class="st0" width="162" height="27"/>
		<text transform="matrix(0.95 0 0 1 8.3878 207.2341)" class="st1 st2 st3 st4">ELEMENTS</text>
	</g>
	<g id="logo_00000026165433869509421710000016913764113806261695_">
		<ellipse id="ellipse_3_00000010293963949276686100000016744877903865935512_" class="st5" cx="81" cy="90" rx="27" ry="81"/>
		
			<ellipse id="ellipse_2_00000124881879376203936800000014371644333041334422_" transform="matrix(0.866 -0.5 0.5 0.866 -34.1476 52.5593)" class="st5" cx="81" cy="90" rx="81" ry="27"/>
		
			<ellipse id="ellipse_1_00000130626389977196183720000017585593599935552176_" transform="matrix(0.5 -0.866 0.866 0.5 -37.4407 115.1508)" class="st5" cx="81" cy="90" rx="27" ry="81"/>
		<circle id="circle_inside_00000174597081596135078070000008829947749822169995_" cx="81" cy="90" r="36"/>
		<circle id="dot3_00000152231959837451622600000012353102012020507826_" class="st6" cx="34.2" cy="44.1" r="4.5"/>
		<circle id="dot2_00000141426572002225719670000011569098433550614407_" class="st6" cx="144.5" cy="72.3" r="4.5"/>
		<circle id="dot1_00000085958439367990427500000014811419773573724555_" class="st6" cx="65.1" cy="153.5" r="4.5"/>
		<path id="flame_00000164492625477231215640000006828412083776869779_" class="st1" d="M77.8,58.3c2.1,0.4,11.8,6.4,13.6,26.5
			c1.5-0.4,3.7-4.9,1.6-11.4c2.7,2.8,11.8,13.6,3.6,23.5c0.2,0.7,2.4,1.7,3.7-0.8c-1.1,32.6-51.2,20.6-37.2-9.6
			C69,75.4,80.4,82.5,77.8,58.3z"/>
	</g>
</g>
</svg>
